<?xml version="1.0" encoding="UTF-8" standalone="no"?>
<svg
   xmlns:dc="http://purl.org/dc/elements/1.1/"
   xmlns:cc="http://creativecommons.org/ns#"
   xmlns:rdf="http://www.w3.org/1999/02/22-rdf-syntax-ns#"
   xmlns:svg="http://www.w3.org/2000/svg"
   xmlns="http://www.w3.org/2000/svg"
   xmlns:sodipodi="http://sodipodi.sourceforge.net/DTD/sodipodi-0.dtd"
   xmlns:inkscape="http://www.inkscape.org/namespaces/inkscape"
   version="1.1"
   id="Layer_1"
   x="0px"
   y="0px"
   viewBox="65 350 455.42334 80"
   xml:space="preserve"
   sodipodi:docname="gfuel.svg"
   width="455.42334"
   height="80"
   inkscape:version="0.92.4 (5da689c313, 2019-01-14)"><metadata
   id="metadata913"><rdf:RDF><cc:Work
       rdf:about=""><dc:format>image/svg+xml</dc:format><dc:type
         rdf:resource="http://purl.org/dc/dcmitype/StillImage" /></cc:Work></rdf:RDF></metadata><sodipodi:namedview
   pagecolor="#ffffff"
   bordercolor="#666666"
   borderopacity="1"
   objecttolerance="10"
   gridtolerance="10"
   guidetolerance="10"
   inkscape:pageopacity="0"
   inkscape:pageshadow="2"
   inkscape:window-width="1920"
   inkscape:window-height="1017"
   id="namedview911"
   showgrid="false"
   inkscape:zoom="1.4510417"
   inkscape:cx="90.640518"
   inkscape:cy="83.916503"
   inkscape:window-x="-8"
   inkscape:window-y="176"
   inkscape:window-maximized="1"
   inkscape:current-layer="Layer_1" />
     <defs
   id="defs870">
        <linearGradient
   id="gfuelSvgFill"
   x1="0"
   y1="0"
   x2="1"
   y2="0"
   gradientTransform="rotate(135,0.5,0.5)"
   gradientUnits="userSpaceOnUse">
        <stop
   offset="0%"
   style="stop-color:#fafafa;stop-opacity:1"
   id="stop865" />
        <stop
   offset="100%"
   style="stop-color:#ffffff;stop-opacity:1"
   id="stop867" />
        </linearGradient>
    </defs>
<g
   id="g908"
   style="fill:#fff;fill-opacity:1"
   transform="matrix(1.3729977,0,0,1.3729977,-128.86728,-134.11899)">
	<path
   d="m 210.8,363.2 c -2.6,-6.7 -8.2,-10.6 -15.5,-10.6 h -37.6 c -3.1,0 -5.9,0.7 -8.5,2.1 -0.1,0.1 -0.3,0.2 -0.4,0.3 -4.9,3.2 -7.6,8.1 -7.6,13.7 v 24.9 c 0,0.3 0,0.7 0.1,1 l 0.3,2.3 c 0.1,0.4 0.2,0.8 0.3,1.3 2.4,7.4 8.1,11.6 15.7,11.6 h 38.1 c 2.8,0 5.7,-0.8 8.5,-2.3 0.4,-0.2 0.7,-0.4 1,-0.7 5.4,-4.3 6.6,-9.5 6.6,-13 V 379 c 0,-1.8 -0.7,-3.6 -1.9,-4.9 1.2,-1.3 1.9,-3.1 1.9,-4.9 v -0.3 c 0,-1.6 -0.3,-3.3 -0.9,-5.2 0,-0.2 0,-0.4 -0.1,-0.5 z m -5.5,6.2 -0.7,0.7 h -42.5 v 23.1 h 28.8 v -6.5 c -0.7,-0.3 -2.9,-1 -9.5,-3 l -12.9,-4.1 V 378 h 36.1 l 0.7,0.7 v 15.1 c 0,3.1 -1.4,5.8 -4.1,8 -1.9,1.1 -3.7,1.6 -5.5,1.6 h -38.1 c -4.8,0 -8,-2.4 -9.5,-7.1 l -0.3,-2.4 v -25 c 0,-3.4 1.6,-6.2 4.7,-8.3 1.6,-0.9 3.3,-1.3 5.3,-1.3 h 37.6 c 4.6,0 7.8,2.2 9.4,6.4 0.4,1.2 0.6,2.3 0.6,3.2 v 0.5 z"
   id="path872"
   style="fill:#fff;fill-opacity:1"
   inkscape:connector-curvature="0" />
	<path
   d="m 470.1,388.7 -0.2,-0.2 c -1.3,-1.1 -2.9,-1.6 -4.6,-1.6 h -35.5 v -26.4 c 0,-2 -0.8,-3.9 -2.3,-5.3 l -0.2,-0.2 c -1.4,-1.3 -3.1,-2 -5,-2 h -12.4 c -0.9,0 -1.7,0.2 -2.5,0.5 -0.9,-0.4 -1.9,-0.6 -2.9,-0.6 h -55.2 c -1,0 -1.9,0.2 -2.8,0.6 -1,-0.5 -2.1,-0.7 -3.2,-0.7 h -12.5 c -1.9,0 -3.6,0.7 -5,2 l -0.2,0.2 c -1.5,1.4 -2.3,3.3 -2.3,5.3 v 26.6 h -15.9 v -26.6 c 0,-2 -0.8,-3.9 -2.3,-5.3 l -0.2,-0.2 c -1.4,-1.3 -3.1,-2 -5,-2 h -12.5 c -1.1,0 -2.2,0.3 -3.1,0.7 -0.9,-0.4 -1.9,-0.6 -2.9,-0.6 H 226 c -1.9,0 -3.7,0.7 -5,2 l -0.2,0.2 c -1.5,1.4 -2.3,3.3 -2.3,5.3 v 42 c 0,2 0.8,3.9 2.3,5.3 l 0.2,0.2 c 1.4,1.3 3.1,2 5,2 h 12.4 c 1.9,0 3.6,-0.7 5,-2 l 0.2,-0.2 c 1.5,-1.4 2.3,-3.3 2.3,-5.3 v -8.5 h 32.2 c 0.7,0 1.3,-0.1 1.9,-0.3 v 0.4 c 0,0.3 0,0.7 0.1,1 l 0.3,2.3 c 0.1,0.4 0.2,0.9 0.3,1.3 2.4,7.4 8.1,11.6 15.8,11.6 h 38 c 2.9,0 5.7,-0.7 8.1,-2 0.2,-0.1 0.3,-0.2 0.5,-0.3 0.3,-0.2 0.6,-0.4 0.8,-0.6 0.1,0.1 0.2,0.2 0.3,0.3 l 0.2,0.2 c 1.4,1.3 3.2,2 5,2 h 55.2 c 1.9,0 3.7,-0.7 5,-2 l 0.2,-0.2 c 2.5,1.6 5.6,2.5 9.1,2.5 h 46.5 c 1.9,0 3.6,-0.7 5,-2 l 0.2,-0.2 c 1.5,-1.4 2.3,-3.3 2.3,-5.3 v -8.1 c -0.1,-2.3 -1.1,-4.4 -2.8,-5.8 z m -191.2,-2.1 -0.7,0.7 h -36.1 l -0.7,-0.7 V 377 l 0.7,-0.6 h 36 l 0.7,0.6 v 9.6 z m 3.4,-17 -0.7,0.6 h -42.3 v 32.4 l -0.7,0.7 h -13 l -0.7,-0.7 V 360 l 0.7,-0.7 h 56.1 l 0.7,0.7 v 9.6 z m 61.9,24.2 c 0,3.5 -1.6,6.4 -4.9,8.5 -1.6,0.8 -3.2,1.2 -5.1,1.2 h -38 c -4.8,0 -8.1,-2.4 -9.6,-7.1 l -0.3,-2.5 v -34.1 l 0.7,-0.7 h 13.1 l 0.7,0.7 v 33.5 h 28.9 v -33.5 l 0.7,-0.7 h 13.1 l 0.7,0.7 z m 61.3,-24.2 -0.7,0.7 h -42.3 v 22.1 h 42.3 l 0.7,0.7 v 9.5 l -0.7,0.7 h -55.9 l -0.7,-0.7 V 360 l 0.7,-0.7 h 55.9 l 0.7,0.7 z m -3.4,7.4 v 9.5 l -0.6,0.7 h -36.1 l -0.7,-0.7 V 377 l 0.7,-0.6 h 36 z m 64.2,25.9 -0.7,0.7 h -46.9 c -4.8,0 -8,-2.4 -9.5,-7 l -0.3,-2.4 v -33.8 l 0.7,-0.7 h 13 l 0.7,0.7 v 33.3 h 42.3 l 0.7,0.6 z"
   id="path874"
   style="fill:#fff;fill-opacity:1"
   inkscape:connector-curvature="0" />
</g>
</svg>