<?xml version="1.0" encoding="UTF-8"?> <svg xmlns="http://www.w3.org/2000/svg" id="Ebene_1" viewBox="0 0 1920 400"><defs><style>.cls-1{fill:#fff;}.cls-2{fill:#e90000;}.cls-3{fill:#009ee3;}</style></defs><path class="cls-2" d="M585.64,207.91h3.22l-2.86,4.21h-8.19c2.41-1.2,5.42-2.41,7.83-4.21Zm-59.61,92.73l57.61-85.03c-18.9,7.32-39.17,9.23-57.61,9.76v75.27Zm112.6-166.19l-49.77,73.46h10.03c6.02-3.01,10.84-7.23,15.65-11.44,5.42-4.82,10.24-11.44,15.06-20.47h12.04c2.41-4.82,4.82-10.24,6.62-16.26h-12.65c1.81-7.83,3.01-15.65,3.01-25.29Zm-46.97,77.68h-5.66l-2.36,3.49c2.71-1.05,5.39-2.21,8.03-3.49Zm228.81-95.91h-71.21v40.68h44.56v3.61h12.65v14.72h-12.65v31.91h-13.85v5.76h13.85v9.3h-44.56v50.92h71.21v-58.7h-8.78v-6.17h8.78v-32.25h8.87v-16.26h-8.87v-43.52Zm-136.51-16.09h-1.54v107.01h-13.85v5.76h13.85v87.74h1.54v-123.88h12.65v-17.8h-12.65v-58.84Zm-279.57,59.61l-9.03,16.26h-12.64l-9.64,19.27,6.62,12.65h-13.85l2.41,4.21h13.85l46.36,88.51V100.13l-36.73,59.61h12.64Zm1238.19,0v-59.61h-42.75l37.33,59.61h5.42Zm-687.98-25.29l-45.76-17.46v41.55c16.86-.6,34.92-3.01,42.15-10.24,1.2-.6,3.61-3.61,3.61-13.85Zm-382.81,0l-45.76-17.46v41.55c16.86-.6,34.92-3.01,42.15-10.24,1.2-.6,3.61-3.61,3.61-13.85Zm-280.6,25.29h-12.64l-37.94-59.61v200.52l47.57-88.51h-13.85l2.41-4.21h13.25l7.23-13.25-9.64-18.67h12.04l-8.43-16.26Zm1165.33,0h-12.65c-4.82-22.88-14.45-42.75-27.7-59.61l-13.25,200.52c23.48-22.28,39.14-53.59,43.35-88.51h-13.85c.6-1.21,.6-2.41,.6-4.21h13.85c.6-4.82,.6-9.64,.6-15.06s0-10.84-.6-16.86h12.04c-.6-5.42-1.2-10.84-2.41-16.26Zm-69.85,0h-12.65c-10.24-25.29-31.31-42.75-56-42.75h0c-25.29,0-46.37,17.46-56.6,42.75h12.64c-2.41,4.82-4.22,10.84-5.42,16.26h-12.64c-.6,5.42-1.21,11.44-1.21,16.86s0,10.24,1.21,15.05h-13.85c0,1.81,.6,3.01,1.2,4.21h13.25c7.23,32.52,31.91,57.2,61.42,57.2h0c28.9,0,53.59-24.69,60.82-57.2h-13.85c.6-1.21,.6-2.41,1.2-4.21h13.25c1.2-4.82,1.2-9.64,1.2-15.05s-.6-11.44-1.2-16.86h12.04c-1.21-5.42-3.01-11.44-4.82-16.26Zm116.38-59.61h-1.54v107.01h-13.85v5.76h13.85v87.74h1.54v-123.88h12.65v-17.8h-12.65v-58.84Zm207.14,58.84v-58.84h-1.54v107.02h-13.25v5.76h13.25v87.74h1.54v-123.87h12.65v-17.8h-12.65Zm-132.04,53.16l-3.01-4.21h-19.87v4.21h13.85v88.52l73.46-6.62-50.58-81.89h-13.85Zm-547.08-52.39h-8.81l.53,16.26h1.66c2.41-4.82,4.82-10.24,6.62-16.26Zm-12.65,0h3.84l-.82-25.29c0,9.64-1.2,17.46-3.01,25.29Zm-21.07,36.73c-2.41,2.41-5.42,4.82-8.43,6.62l1.8,4.82h-13.85l1.81,4.21h13.85l34.32,88.52-4.07-124.65h-10.39c-4.82,9.03-9.64,15.65-15.06,20.47Zm194.22-36.73h12.64c-1.2,5.42-2.41,10.84-3.01,16.26h-12.64c-.6,6.02-.6,11.44-.6,16.86s0,10.24,.6,15.05h-13.85c0,1.81,.6,3.01,.6,4.22h13.85c4.22,34.92,19.87,66.24,43.36,88.52l-13.25-200.51c-13.25,16.86-22.88,36.73-27.7,59.61Zm-282.73,65.63v75.27h46.37l-29.51-76.47c-6.02,.6-11.44,.6-16.86,1.2Zm242.84-107.61v-18.4h-68.38v107.79h-13.85v5.76h13.85v87.74h1.54v-124.48l26.47-58.41h38.82s.21,0,.21,0v182.88h1.33v-124.64h12.15v-16.26s-12.15,0-12.15,0v-41.98Z"></path><path class="cls-3" d="M545.05,207.91h3.22l-2.86,4.21h-8.19c2.41-1.2,5.42-2.41,7.83-4.21Zm-59.61,92.73l57.61-85.03c-18.9,7.32-39.17,9.23-57.61,9.76v75.27Zm112.6-166.19l-49.77,73.46h10.03c6.02-3.01,10.84-7.23,15.65-11.44,5.42-4.82,10.24-11.44,15.06-20.47h12.04c2.41-4.82,4.82-10.24,6.62-16.26h-12.65c1.81-7.83,3.01-15.65,3.01-25.29Zm-46.97,77.68h-5.66l-2.36,3.49c2.71-1.05,5.39-2.21,8.03-3.49Zm228.81-95.91h-71.21v40.68h44.56v3.61h12.65v14.72h-12.65v31.91h-13.85v5.76h13.85v9.3h-44.56v50.92h71.21v-58.7h-8.78v-6.17h8.78v-32.25h8.87v-16.26h-8.87v-43.52Zm-136.51-16.09h-1.54v107.01h-13.85v5.76h13.85v87.74h1.54v-123.88h12.65v-17.8h-12.65v-58.84Zm-279.57,59.61l-9.03,16.26h-12.64l-9.64,19.27,6.62,12.65h-13.85l2.41,4.21h13.85l46.36,88.51V100.13l-36.73,59.61h12.64Zm1238.19,0v-59.61h-42.75l37.33,59.61h5.42Zm-687.98-25.29l-45.76-17.46v41.55c16.86-.6,34.92-3.01,42.15-10.24,1.2-.6,3.61-3.61,3.61-13.85Zm-382.81,0l-45.76-17.46v41.55c16.86-.6,34.92-3.01,42.15-10.24,1.2-.6,3.61-3.61,3.61-13.85Zm-280.6,25.29h-12.64l-37.94-59.61v200.52l47.57-88.51h-13.85l2.41-4.21h13.25l7.23-13.25-9.64-18.67h12.04l-8.43-16.26Zm1165.33,0h-12.65c-4.82-22.88-14.45-42.75-27.7-59.61l-13.25,200.52c23.48-22.28,39.14-53.59,43.35-88.51h-13.85c.6-1.21,.6-2.41,.6-4.21h13.85c.6-4.82,.6-9.64,.6-15.06s0-10.84-.6-16.86h12.04c-.6-5.42-1.2-10.84-2.41-16.26Zm-69.85,0h-12.65c-10.24-25.29-31.31-42.75-56-42.75h0c-25.29,0-46.37,17.46-56.6,42.75h12.64c-2.41,4.82-4.22,10.84-5.42,16.26h-12.64c-.6,5.42-1.21,11.44-1.21,16.86s0,10.24,1.21,15.05h-13.85c0,1.81,.6,3.01,1.2,4.21h13.25c7.23,32.52,31.91,57.2,61.42,57.2h0c28.9,0,53.59-24.69,60.82-57.2h-13.85c.6-1.21,.6-2.41,1.2-4.21h13.25c1.2-4.82,1.2-9.64,1.2-15.05s-.6-11.44-1.2-16.86h12.04c-1.21-5.42-3.01-11.44-4.82-16.26Zm116.38-59.61h-1.54v107.01h-13.85v5.76h13.85v87.74h1.54v-123.88h12.65v-17.8h-12.65v-58.84Zm207.14,58.84v-58.84h-1.54v107.02h-13.25v5.76h13.25v87.74h1.54v-123.87h12.65v-17.8h-12.65Zm-132.04,53.16l-3.01-4.21h-19.87v4.21h13.85v88.52l73.46-6.62-50.58-81.89h-13.85Zm-547.08-52.39h-8.81l.53,16.26h1.66c2.41-4.82,4.82-10.24,6.62-16.26Zm-12.65,0h3.84l-.82-25.29c0,9.64-1.2,17.46-3.01,25.29Zm-21.07,36.73c-2.41,2.41-5.42,4.82-8.43,6.62l1.8,4.82h-13.85l1.81,4.21h13.85l34.32,88.52-4.07-124.65h-10.39c-4.82,9.03-9.64,15.65-15.06,20.47Zm194.22-36.73h12.64c-1.2,5.42-2.41,10.84-3.01,16.26h-12.64c-.6,6.02-.6,11.44-.6,16.86s0,10.24,.6,15.05h-13.85c0,1.81,.6,3.01,.6,4.22h13.85c4.22,34.92,19.87,66.24,43.36,88.52l-13.25-200.51c-13.25,16.86-22.88,36.73-27.7,59.61Zm-282.73,65.63v75.27h46.37l-29.51-76.47c-6.02,.6-11.44,.6-16.86,1.2Zm242.84-107.61v-18.4h-68.38v107.79h-13.85v5.76h13.85v87.74h1.54v-124.48l26.47-58.41h38.82s.21,0,.21,0v182.88h1.33v-124.64h12.15v-16.26s-12.15,0-12.15,0v-41.98Z"></path><path class="cls-1" d="M557.27,207.91h3.22l-2.86,4.21h-8.19c2.41-1.2,5.42-2.41,7.83-4.21Zm-59.61,92.73l57.61-85.03c-18.9,7.32-39.17,9.23-57.61,9.76v75.27Zm112.6-166.19l-49.77,73.46h10.03c6.02-3.01,10.84-7.23,15.65-11.44,5.42-4.82,10.24-11.44,15.06-20.47h12.04c2.41-4.82,4.82-10.24,6.62-16.26h-12.65c1.81-7.83,3.01-15.65,3.01-25.29Zm-46.97,77.68h-5.66l-2.36,3.49c2.71-1.05,5.39-2.21,8.03-3.49Zm228.81-95.91h-71.21v40.68h44.56v3.61h12.65v14.72h-12.65v31.91h-13.85v5.76h13.85v9.3h-44.56v50.92h71.21v-58.7h-8.78v-6.17h8.78v-32.25h8.87v-16.26h-8.87v-43.52Zm-136.51-16.09h-1.54v107.01h-13.85v5.76h13.85v87.74h1.54v-123.88h12.65v-17.8h-12.65v-58.84Zm-279.57,59.61l-9.03,16.26h-12.64l-9.64,19.27,6.62,12.65h-13.85l2.41,4.21h13.85l46.36,88.51V100.13l-36.73,59.61h12.64Zm1238.19,0v-59.61h-42.75l37.33,59.61h5.42Zm-687.98-25.29l-45.76-17.46v41.55c16.86-.6,34.92-3.01,42.15-10.24,1.2-.6,3.61-3.61,3.61-13.85Zm-382.81,0l-45.76-17.46v41.55c16.86-.6,34.92-3.01,42.15-10.24,1.2-.6,3.61-3.61,3.61-13.85Zm-280.6,25.29h-12.64l-37.94-59.61v200.52l47.57-88.51h-13.85l2.41-4.21h13.25l7.23-13.25-9.64-18.67h12.04l-8.43-16.26Zm1165.33,0h-12.65c-4.82-22.88-14.45-42.75-27.7-59.61l-13.25,200.52c23.48-22.28,39.14-53.59,43.35-88.51h-13.85c.6-1.21,.6-2.41,.6-4.21h13.85c.6-4.82,.6-9.64,.6-15.06s0-10.84-.6-16.86h12.04c-.6-5.42-1.2-10.84-2.41-16.26Zm-69.85,0h-12.65c-10.24-25.29-31.31-42.75-56-42.75h0c-25.29,0-46.37,17.46-56.6,42.75h12.64c-2.41,4.82-4.22,10.84-5.42,16.26h-12.64c-.6,5.42-1.21,11.44-1.21,16.86s0,10.24,1.21,15.05h-13.85c0,1.81,.6,3.01,1.2,4.21h13.25c7.23,32.52,31.91,57.2,61.42,57.2h0c28.9,0,53.59-24.69,60.82-57.2h-13.85c.6-1.21,.6-2.41,1.2-4.21h13.25c1.2-4.82,1.2-9.64,1.2-15.05s-.6-11.44-1.2-16.86h12.04c-1.21-5.42-3.01-11.44-4.82-16.26Zm116.38-59.61h-1.54v107.01h-13.85v5.76h13.85v87.74h1.54v-123.88h12.65v-17.8h-12.65v-58.84Zm207.14,58.84v-58.84h-1.54v107.02h-13.25v5.76h13.25v87.74h1.54v-123.87h12.65v-17.8h-12.65Zm-132.04,53.16l-3.01-4.21h-19.87v4.21h13.85v88.52l73.46-6.62-50.58-81.89h-13.85Zm-547.08-52.39h-8.81l.53,16.26h1.66c2.41-4.82,4.82-10.24,6.62-16.26Zm-12.65,0h3.84l-.82-25.29c0,9.64-1.2,17.46-3.01,25.29Zm-21.07,36.73c-2.41,2.41-5.42,4.82-8.43,6.62l1.8,4.82h-13.85l1.81,4.21h13.85l34.32,88.52-4.07-124.65h-10.39c-4.82,9.03-9.64,15.65-15.06,20.47Zm194.22-36.73h12.64c-1.2,5.42-2.41,10.84-3.01,16.26h-12.64c-.6,6.02-.6,11.44-.6,16.86s0,10.24,.6,15.05h-13.85c0,1.81,.6,3.01,.6,4.22h13.85c4.22,34.92,19.87,66.24,43.36,88.52l-13.25-200.51c-13.25,16.86-22.88,36.73-27.7,59.61Zm-282.73,65.63v75.27h46.37l-29.51-76.47c-6.02,.6-11.44,.6-16.86,1.2Zm242.84-107.61v-18.4h-68.38v107.79h-13.85v5.76h13.85v87.74h1.54v-124.48l26.47-58.41h38.82s.21,0,.21,0v182.88h1.33v-124.64h12.15v-16.26s-12.15,0-12.15,0v-41.98Z"></path></svg> 